<svg width="600" height="413" viewBox="0 -35 800 550" xmlns="http://www.w3.org/2000/svg">
  <defs>
    <marker id="arrow-end" markerWidth="12" markerHeight="10" refX="8.5" refY="5" orient="auto">
      <path d="M0,0 L10,5 L0,10 L2,5 z" fill="black" />
    </marker>
    <marker id="arrow-start" markerWidth="12" markerHeight="10" refX="1.5" refY="5" orient="auto">
      <path d="M10,0 L0,5 L10,10 L8,5 z" fill="black" />
    </marker>
  </defs>

  <style>
    text {
      font-family: "Microsoft YaHei", "SimHei", sans-serif;
      text-anchor: middle;
      dominant-baseline: middle;
      fill: black;
    }
    .title-text {
      font-size: 18px;
      font-weight: bold;
    }
    .box-text {
      font-size: 24px;
      font-weight: bold;
    }
    .label-text {
      font-size: 20px;
    }
    .axis-line {
      stroke: black;
      stroke-width: 4;
    }
    .conn-line {
      stroke: black;
      stroke-width: 1.5;
    }
    /* 矩形无填充 */
    .box {
      fill: none; 
      stroke: black;
      stroke-width: 2;
    }
  </style>

  <text x="100" y="40" class="title-text">完全</text>
  <text x="100" y="65" class="title-text">垄断</text>
  <line x1="100" y1="80" x2="100" y2="118" stroke="black" stroke-width="2" marker-end="url(#arrow-end)" />
  
  <text x="300" y="40" class="title-text">寡头</text>
  <text x="300" y="65" class="title-text">垄断</text>
  <line x1="300" y1="80" x2="300" y2="118" stroke="black" stroke-width="2" marker-end="url(#arrow-end)" />

  <text x="500" y="40" class="title-text">垄断</text>
  <text x="500" y="65" class="title-text">竞争</text>
  <line x1="500" y1="80" x2="500" y2="118" stroke="black" stroke-width="2" marker-end="url(#arrow-end)" />

  <text x="700" y="40" class="title-text">完全</text>
  <text x="700" y="65" class="title-text">竞争</text>
  <line x1="700" y1="80" x2="700" y2="118" stroke="black" stroke-width="2" marker-end="url(#arrow-end)" />

  <line x1="80" y1="130" x2="720" y2="130" class="axis-line" />
  
  <circle cx="100" cy="130" r="8" fill="black" />
  <circle cx="300" cy="130" r="8" fill="black" />
  <circle cx="500" cy="130" r="8" fill="black" />
  <circle cx="700" cy="130" r="8" fill="black" />

  <rect x="70" y="170" width="60" height="60" class="box" />
  <text x="100" y="200" class="box-text">强</text>

  <text x="400" y="190" class="label-text">企业控制价格的能力</text>
  <line x1="135" y1="210" x2="665" y2="210" class="conn-line" marker-start="url(#arrow-start)" marker-end="url(#arrow-end)" />

  <rect x="670" y="170" width="60" height="60" class="box" />
  <text x="700" y="200" class="box-text">弱</text>

  <rect x="70" y="250" width="60" height="60" class="box" />
  <text x="100" y="280" class="box-text">少</text>

  <text x="400" y="270" class="label-text">卖者的数量</text>
  <line x1="135" y1="290" x2="665" y2="290" class="conn-line" marker-start="url(#arrow-start)" marker-end="url(#arrow-end)" />

  <rect x="670" y="250" width="60" height="60" class="box" />
  <text x="700" y="280" class="box-text">多</text>

  <rect x="70" y="330" width="60" height="140" class="box" />
  <text x="100" y="400" class="box-text">大</text>

  <rect x="670" y="330" width="60" height="140" class="box" />
  <text x="700" y="400" class="box-text">小</text>

  <text x="400" y="350" class="label-text">产品的差异程度</text>
  <line x1="135" y1="370" x2="665" y2="370" class="conn-line" marker-start="url(#arrow-start)" marker-end="url(#arrow-end)" />

  <text x="400" y="430" class="label-text">企业进出市场的难易程度</text>
  <line x1="135" y1="450" x2="665" y2="450" class="conn-line" marker-start="url(#arrow-start)" marker-end="url(#arrow-end)" />

</svg>